<svg width="86" height="14" viewBox="0 0 86 14" fill="none" xmlns="http://www.w3.org/2000/svg">
<path fill-rule="evenodd" clip-rule="evenodd" d="M2.51922 0.549438H0.242188V12.7697H2.51922V7.52228H3.59502C4.23072 8.54463 4.86653 9.56695 5.50212 10.5893C5.9541 11.3161 6.54406 12.3983 7.12395 12.7697H9.92107C8.66259 11.6923 8.32296 11.0481 7.74275 10.1184L5.5852 6.3002L9.42204 0.549438H6.80445L3.59502 5.54531H2.51922V0.549438ZM28.7679 3.08322C29.2822 3.08322 29.6802 3.14661 29.962 3.27622C30.24 3.40436 30.4398 3.59553 30.5473 3.84311C30.6543 4.08932 30.7015 4.39935 30.7008 4.76055C30.6998 5.10596 30.7008 5.45359 30.7008 5.80019L28.6046 5.68748C27.563 5.63153 26.7435 5.85268 26.273 5.96551C25.803 6.07865 25.3766 6.27392 24.9963 6.54451C24.6163 6.8151 24.3157 7.1873 24.0928 7.6547C23.8698 8.1225 23.7473 8.71002 23.7473 9.415C23.7473 10.1079 23.8918 10.7218 24.1674 11.2576C24.4438 11.7952 24.845 12.2218 25.3696 12.5296C25.8957 12.8383 26.5332 12.9998 27.2829 13.0058C27.7488 13.0095 28.1827 12.9638 28.5751 12.8721C28.9667 12.7808 29.3332 12.6177 29.675 12.3878C30.0151 12.1591 30.343 11.8364 30.6535 11.4231H30.7008C30.8331 12.1807 30.8593 12.4795 31.2536 12.7697H33.858C33.6216 12.4519 33.5258 12.0002 33.5258 11.6156V11.3194L33.529 4.64255C33.5291 3.86673 33.4262 3.22384 33.2306 2.71315C33.0355 2.20591 32.7414 1.80355 32.3581 1.51207C31.9771 1.22282 31.509 1.01357 30.9518 0.89395C30.3993 0.775625 29.7648 0.719573 29.0506 0.720688C28.3758 0.721479 27.6473 0.769189 26.8781 0.85458C26.1053 0.94051 25.3224 1.06311 24.5249 1.2171V3.08322H28.7679ZM30.7008 8.63534C30.7008 9.01527 30.6248 9.34885 30.4844 9.6235C30.3438 9.89808 30.1564 10.1236 29.9344 10.297C29.7104 10.472 29.4656 10.6045 29.2078 10.6867C28.9531 10.7676 28.6997 10.808 28.4612 10.8089C28.128 10.8099 27.8169 10.7581 27.5341 10.6551C27.2492 10.5514 27.0175 10.3836 26.8426 10.1511C26.6696 9.92091 26.5756 9.61171 26.5756 9.22585C26.5756 8.67079 26.7493 8.26016 27.0822 7.99317C27.4151 7.72653 27.8916 7.59566 28.5082 7.59566H30.7008V8.63534ZM42.7757 12.7697H45.4914C44.5813 11.6632 44.0555 11.2081 43.3966 10.0871C43.0443 9.59621 42.5803 8.72073 42.4899 7.75587C42.9857 7.603 43.3082 7.36523 43.6495 7.04582C43.9889 6.72795 44.248 6.34241 44.4233 5.88684C44.5974 5.43515 44.6862 4.93136 44.6862 4.37746C44.6862 3.83505 44.5971 3.33166 44.4233 2.86797C44.2506 2.40668 43.999 2.00209 43.6672 1.65463C43.3357 1.30742 42.9325 1.03672 42.454 0.842858C41.9794 0.650648 41.4378 0.549438 40.8313 0.549438H36.2595V12.7697H38.5364V8.15111H40.1678C40.2306 8.61251 40.8694 10.1246 41.065 10.4675C41.7478 11.6641 41.8859 11.7506 42.7757 12.7697ZM40.5626 2.52622C40.927 2.52622 41.2408 2.60187 41.5007 2.75076C41.7574 2.89824 41.9581 3.11051 42.0955 3.38581C42.2327 3.66129 42.3015 3.99088 42.3015 4.37746C42.3015 4.74872 42.2489 5.05213 42.1433 5.28788C42.0372 5.52514 41.8861 5.70747 41.6861 5.83607C41.486 5.96461 41.2465 6.05306 40.9628 6.1026C40.682 6.15161 40.3621 6.17444 40.007 6.17444H38.5364V2.52622H40.5626ZM79.1068 12.7697V4.86258H79.1425L83.168 12.1348C83.3825 12.4468 83.4394 12.7602 83.9359 12.7602H85.1217C85.96 12.7602 85.7866 12.2977 85.8082 12.0243C85.8036 8.41225 85.7995 5.00913 85.7949 1.39709C85.7826 1.13793 85.8549 0.765306 86.0005 0.549438H83.7973C83.6424 0.795364 83.5878 1.10856 83.5889 1.3922L83.589 8.78016H83.5531L79.1963 0.549438H77.4659C77.0599 0.549438 76.9192 0.812011 76.9192 1.17011V12.0395C76.9192 12.6185 77.0326 12.7697 77.6239 12.7697H79.1068ZM16.4088 3.08322C16.9235 3.08322 17.3212 3.14661 17.6031 3.27622C17.8815 3.40465 18.0809 3.59513 18.1884 3.84311C18.2954 4.08965 18.3431 4.39924 18.3418 4.76055C18.3406 5.10624 18.3418 5.45359 18.3418 5.80019L16.2458 5.68748C15.204 5.63153 14.3849 5.8524 13.9142 5.96551C13.4438 6.07883 13.0179 6.2736 12.6375 6.54451C12.2572 6.81532 11.957 7.18708 11.7339 7.6547C11.511 8.12267 11.3883 8.71002 11.3883 9.415C11.3883 10.1079 11.5328 10.7216 11.8087 11.2576C12.085 11.7954 12.4859 12.2218 13.0109 12.5296C13.5372 12.8384 14.1742 12.9997 14.9239 13.0058C15.3904 13.0099 15.8238 12.9639 16.2163 12.8721C16.6079 12.7807 16.9743 12.6179 17.3163 12.3878C17.6564 12.1589 17.9843 11.8364 18.2944 11.4231H18.3418C18.474 12.1807 18.5002 12.4795 18.8948 12.7697H21.4991C21.2626 12.4519 21.1668 12.0002 21.1668 11.6156V11.3194L21.1701 4.64255C21.1706 3.86673 21.0678 3.22395 20.8716 2.71315C20.6767 2.20591 20.3827 1.80355 19.9995 1.51207C19.6184 1.2226 19.1504 1.01357 18.593 0.89395C18.0403 0.775302 17.4059 0.719465 16.6918 0.720688C16.017 0.721694 15.2887 0.769081 14.5193 0.85458C13.7463 0.940834 12.9637 1.06311 12.166 1.2171V3.08322H16.4088ZM18.3418 8.63534C18.3418 9.01559 18.266 9.34874 18.1256 9.6235C17.9849 9.89819 17.7978 10.1235 17.5758 10.297C17.3513 10.4722 17.1071 10.6043 16.8488 10.6867C16.5939 10.768 16.3412 10.808 16.1026 10.8089C15.7693 10.81 15.4582 10.7584 15.1754 10.6551C14.8904 10.5514 14.6586 10.3836 14.4838 10.1511C14.3106 9.92048 14.2166 9.61171 14.2166 9.22585C14.2166 8.67079 14.3903 8.26049 14.7234 7.99317C15.0566 7.72642 15.5327 7.59566 16.1494 7.59566H18.3418V8.63534ZM69.0386 3.08322C69.5531 3.08322 69.9535 3.14873 70.2327 3.27622C70.5088 3.40199 70.7129 3.5979 70.8181 3.84311C70.9225 4.0872 70.9714 4.40039 70.9714 4.76055V5.80019L68.8758 5.68748C67.8384 5.63185 67.0121 5.85513 66.5439 5.96551C66.0759 6.07628 65.6452 6.27604 65.2673 6.54451C64.8894 6.81276 64.5843 7.18953 64.3636 7.6547C64.1428 8.12005 64.018 8.71002 64.018 9.415C64.018 10.1079 64.1649 10.724 64.4382 11.2576C64.7124 11.7927 65.1181 12.2243 65.6406 12.5296C66.164 12.8359 66.8058 13.0027 67.5535 13.0058C68.0171 13.0078 68.4557 12.9615 68.846 12.8721C69.2351 12.7831 69.6065 12.6155 69.9461 12.3878C70.2835 12.1615 70.614 11.8364 70.9241 11.4231H70.9714C71.1037 12.1807 71.13 12.4795 71.5245 12.7697H74.1289C73.8926 12.4519 73.7964 12.0002 73.7964 11.6156V11.3194L73.7998 4.64255C73.8003 3.86673 73.695 3.2215 73.5012 2.71315C73.3088 2.20835 73.0099 1.80121 72.6291 1.51207C72.2504 1.22487 71.7777 1.01123 71.2226 0.89395C70.6726 0.777746 70.0344 0.720688 69.3215 0.720688C68.6479 0.720688 67.9158 0.771526 67.1489 0.85458C66.3785 0.938173 65.5932 1.06311 64.7956 1.2171V3.08322H69.0386ZM54.5538 5.92255L53.0873 11.854C52.8974 12.5222 52.6678 12.8744 52.0515 12.8597H50.1313C49.5669 12.845 49.3682 12.2947 49.2585 11.7698C48.1359 7.97278 47.2718 4.34657 46.1491 0.549438H48.6593L51.1763 10.1638H51.1942L53.2945 0.862635H54.5496H55.8047L57.9048 10.1638H57.9229L60.2005 1.39331C60.2803 1.11194 60.5057 0.767463 60.7521 0.549438H63.2624C62.9487 0.820639 62.7592 1.19539 62.6636 1.51818C61.645 4.96358 60.8346 8.40865 59.8159 11.854C59.6259 12.5222 59.3964 12.8744 58.78 12.8597H56.8598C56.2953 12.845 56.0969 12.2947 55.987 11.7698C55.3843 9.73114 54.9762 7.832 54.5538 5.92255ZM70.9714 8.63534C70.9714 9.0107 70.8934 9.35108 70.7552 9.6235C70.6169 9.89574 70.4248 10.1258 70.2055 10.297C69.9838 10.4696 69.7343 10.6067 69.4784 10.6867C69.2262 10.7656 68.9693 10.8089 68.7323 10.8089C68.3997 10.8089 68.0854 10.7558 67.8051 10.6551C67.5223 10.5539 67.2859 10.3812 67.1135 10.1511C66.9428 9.92325 66.8462 9.61171 66.8462 9.22585C66.8462 8.67079 67.0225 8.25793 67.3531 7.99317C67.6837 7.72887 68.1624 7.59566 68.7791 7.59566H70.9714V8.63534Z" fill="url(#paint0_linear_21_144)"/>
<defs>
<linearGradient id="paint0_linear_21_144" x1="85.5593" y1="6.99761" x2="-0.0520064" y2="7.14524" gradientUnits="userSpaceOnUse">
<stop stop-color="#F7269E"/>
<stop offset="0.338541" stop-color="#F9466F"/>
<stop offset="0.624999" stop-color="#FC6640"/>
<stop offset="1" stop-color="#FE9101"/>
</linearGradient>
</defs>
</svg>
