<svg width="32" height="32" viewBox="0 0 32 32" fill="none" xmlns="http://www.w3.org/2000/svg">
<path d="M27.2066 4.59994C24.233 1.63733 20.2789 0.00490643 16.0661 0.00305176C7.385 0.00305176 0.320332 7.03439 0.316842 15.6769C0.315819 18.4396 1.04084 21.1363 2.41892 23.5134L0.184631 31.6357L8.5335 29.4561C10.8338 30.7051 13.4237 31.3632 16.0594 31.3643H16.0661H16.0661C24.7458 31.3643 31.8115 24.3317 31.8152 15.6896C31.8167 11.5011 30.1799 7.56276 27.2066 4.59994V4.59994ZM16.0661 28.717H16.061C13.7117 28.7157 11.408 28.0878 9.39853 26.9007L8.92029 26.6184L3.96591 27.9117L5.28865 23.1042L4.97708 22.6113C3.66664 20.5369 2.97484 18.1396 2.97586 15.678C2.97872 8.49459 8.85061 2.65058 16.0711 2.65058C19.5676 2.65202 22.8539 4.00893 25.3256 6.47136C27.797 8.93378 29.1571 12.2072 29.156 15.6886C29.1529 22.8721 23.2808 28.717 16.0661 28.717Z" fill="white"/>
</svg>
